<?xml version="1.0" standalone="no"?>
<!DOCTYPE svg PUBLIC "-//W3C//DTD SVG 20010904//EN"
 "http://www.w3.org/TR/2001/REC-SVG-20010904/DTD/svg10.dtd">
<svg version="1.0" xmlns="http://www.w3.org/2000/svg"
 width="700.000000pt" height="700.000000pt" viewBox="0 0 700.000000 700.000000"
 preserveAspectRatio="xMidYMid meet">
<metadata>
Created by potrace 1.14, written by Peter Selinger 2001-2017
</metadata>
<g transform="translate(0.000000,700.000000) scale(0.100000,-0.100000)"
fill="#000000" stroke="none">
<path d="M2560 5800 c-229 -38 -511 -219 -792 -506 -298 -305 -470 -563 -544
-811 -29 -99 -41 -261 -23 -328 39 -153 153 -259 349 -325 257 -86 620 57
1080 427 195 156 461 423 590 593 19 25 41 51 48 58 18 20 42 80 42 108 0 32
-40 42 -72 18 -13 -9 -61 -64 -108 -122 -149 -184 -434 -461 -634 -617 -21
-16 -44 -35 -50 -40 -59 -55 -218 -162 -329 -220 -239 -127 -460 -136 -567
-23 -82 86 -98 254 -43 443 23 81 56 141 74 136 117 -30 379 34 624 153 516
252 785 523 785 791 0 116 -51 193 -160 244 -44 20 -72 26 -140 27 -47 1 -105
-2 -130 -6z m257 -201 c33 -20 34 -57 4 -135 -81 -210 -281 -403 -606 -586
-108 -61 -231 -114 -323 -139 -73 -20 -214 -30 -227 -17 -18 18 171 263 322
419 247 255 523 455 655 476 18 3 34 6 35 7 7 7 122 -13 140 -25z"/>
<path d="M4979 5804 c-22 -7 -119 -186 -108 -200 5 -6 -119 -137 -341 -360
-461 -461 -450 -449 -450 -462 0 -6 -9 -17 -21 -25 -50 -36 -195 -176 -219
-212 -14 -22 -53 -67 -85 -101 -33 -33 -65 -67 -71 -75 -6 -8 -31 -32 -55 -54
-25 -22 -62 -62 -83 -90 -20 -27 -46 -53 -57 -57 -10 -4 -32 -28 -48 -54 -17
-25 -48 -62 -70 -81 -23 -19 -41 -39 -41 -44 0 -5 -16 -23 -35 -40 -19 -17
-44 -46 -55 -64 -12 -19 -29 -36 -38 -39 -10 -3 -25 -18 -34 -33 -9 -16 -40
-50 -68 -78 -28 -27 -59 -63 -69 -78 -11 -16 -43 -54 -73 -85 -29 -31 -74 -82
-99 -112 -24 -30 -69 -80 -100 -110 -31 -30 -69 -73 -85 -95 -15 -22 -58 -74
-94 -115 -37 -41 -120 -142 -185 -225 -65 -82 -154 -195 -198 -250 -43 -55
-89 -113 -102 -128 -12 -15 -170 -225 -351 -466 -242 -322 -333 -437 -346
-433 -10 2 -21 -5 -28 -20 -7 -12 -52 -61 -101 -108 -90 -86 -105 -114 -75
-142 12 -11 11 -18 -6 -46 l-20 -32 21 -34 c12 -19 27 -36 34 -39 16 -6 45 18
75 60 13 18 28 32 35 30 7 -1 11 4 9 11 -1 7 15 38 36 70 21 31 57 89 80 128
34 59 89 141 207 309 236 335 644 895 701 962 11 12 51 61 89 110 39 48 80 99
92 112 12 13 29 41 38 62 10 20 26 39 36 42 10 3 23 16 28 29 5 12 32 45 61
71 28 27 63 67 77 90 14 23 51 68 82 101 146 153 175 186 235 262 22 27 59 68
82 91 23 24 45 54 48 68 4 14 18 31 31 37 13 6 36 28 50 50 14 21 63 76 108
121 45 45 97 100 115 122 52 63 235 257 365 386 64 64 117 121 117 126 0 10
35 46 185 189 50 48 142 136 205 198 63 61 135 127 159 146 24 19 49 40 55 45
6 6 79 64 161 130 83 65 156 124 162 131 8 7 28 10 51 7 33 -4 42 -2 56 18 9
13 16 34 16 47 l0 24 36 -23 36 -22 21 21 c18 19 19 25 9 60 -6 21 -10 57 -8
79 6 58 -11 77 -71 79 -26 1 -59 4 -73 7 -14 3 -32 3 -41 1z m-72 -176 c-3 -8
-6 -5 -6 6 -1 11 2 17 5 13 3 -3 4 -12 1 -19z"/>
<path d="M5658 5804 c-9 -3 -42 -48 -72 -100 -58 -98 -63 -110 -46 -99 6 3 10
1 10 -5 0 -6 -162 -172 -360 -369 -198 -197 -360 -364 -360 -370 0 -6 -13 -17
-30 -26 -16 -8 -32 -25 -36 -38 -3 -12 -30 -42 -60 -67 -52 -43 -107 -98 -262
-269 -37 -40 -96 -104 -132 -141 -149 -155 -203 -215 -213 -237 -6 -13 -13
-23 -17 -23 -13 0 -80 -71 -80 -85 0 -8 -4 -15 -8 -15 -13 0 -82 -71 -82 -84
0 -6 -16 -22 -35 -35 -19 -13 -35 -27 -35 -32 0 -4 -31 -41 -70 -81 -38 -40
-70 -77 -70 -82 0 -4 -41 -51 -90 -103 -50 -53 -98 -109 -107 -124 -10 -16
-25 -32 -35 -35 -10 -3 -18 -10 -18 -15 0 -5 -14 -21 -31 -36 -17 -16 -47 -50
-67 -78 -19 -27 -46 -61 -59 -75 -55 -58 -102 -114 -236 -285 -78 -99 -144
-182 -147 -185 -11 -10 -187 -235 -230 -295 -38 -52 -211 -286 -389 -526 -31
-41 -65 -88 -76 -103 -103 -141 -114 -153 -139 -149 -20 4 -26 0 -31 -19 -3
-13 -46 -61 -96 -107 -71 -66 -89 -88 -89 -111 0 -16 7 -30 16 -34 13 -5 11
-11 -10 -39 l-26 -34 30 -42 c26 -35 33 -40 49 -31 28 14 133 157 203 274 33
56 75 124 95 151 19 28 92 131 161 230 304 434 607 843 757 1025 47 58 100
128 118 157 18 29 38 53 44 53 7 0 19 14 28 30 9 17 36 49 61 72 25 23 61 66
80 95 20 28 80 98 135 153 54 56 99 105 99 109 0 4 17 25 38 47 94 102 158
180 172 208 8 17 25 35 36 40 12 6 29 21 37 36 9 14 28 39 42 55 81 88 107
115 114 115 4 0 32 30 62 67 30 37 96 110 147 163 52 52 107 113 123 135 16
22 45 54 66 70 57 46 152 145 174 182 11 18 32 42 46 53 14 11 118 109 232
219 113 110 220 210 236 223 17 12 41 33 55 45 14 11 101 82 193 156 160 129
169 135 205 130 43 -6 56 4 69 55 l8 33 24 -20 c30 -26 36 -26 62 0 13 13 18
26 13 37 -4 9 -8 46 -10 81 -3 77 -18 95 -77 98 -23 0 -53 3 -67 6 -14 3 -33
3 -42 1z m-71 -176 c-3 -8 -6 -5 -6 6 -1 11 2 17 5 13 3 -3 4 -12 1 -19z"/>
<path d="M4845 3204 c-33 -7 -70 -15 -83 -18 -43 -9 -177 -72 -237 -111 -76
-50 -198 -172 -253 -252 -92 -136 -152 -289 -175 -448 -13 -88 -15 -290 -3
-350 4 -16 9 -45 12 -64 51 -306 314 -616 605 -718 113 -39 202 -52 329 -49
63 2 129 7 145 10 117 26 240 82 350 161 114 82 285 272 285 318 0 28 -32 77
-51 77 -9 0 -36 -22 -60 -50 -84 -95 -218 -178 -359 -221 -113 -34 -273 -32
-400 6 -224 67 -364 248 -408 525 -9 56 -9 407 0 415 4 4 286 7 628 7 715 0
664 -7 661 92 -3 156 -87 322 -233 462 -101 98 -209 159 -346 196 -96 26 -316
32 -407 12z m326 -153 c140 -53 232 -178 238 -323 3 -65 -8 -92 -47 -112 -53
-27 -78 -29 -555 -41 l-258 -7 7 28 c57 244 187 418 350 468 68 20 193 14 265
-13z"/>
<path d="M2010 1309 c0 -5 5 -7 10 -4 6 3 10 8 10 11 0 2 -4 4 -10 4 -5 0 -10
-5 -10 -11z"/>
</g>
</svg>
